<svg width="337" height="20" viewBox="0 0 337 20" fill="none" xmlns="http://www.w3.org/2000/svg">
<g opacity="0.4">
<path d="M27.6911 8.76265L6.64523 8.76265L11.269 4.13893C11.9067 3.50117 11.9067 2.54454 11.269 1.90678C10.6312 1.26903 9.67457 1.26903 9.03681 1.90678L1.70263 9.24097C1.06487 9.87872 1.06487 10.8354 1.70263 11.4731L9.03681 18.8073C9.67457 19.445 10.6312 19.445 11.269 18.8073C11.9067 18.1695 11.9067 17.2129 11.269 16.5752L6.64523 11.9514L27.6911 11.9514C28.4883 11.9514 29.2855 11.3137 29.2855 10.357C29.2855 9.40041 28.4883 8.76265 27.6911 8.76265Z" fill="#458FF6"/>
</g>
<path d="M308.737 11.2373L329.783 11.2373L325.16 15.8611C324.522 16.4988 324.522 17.4555 325.16 18.0932C325.797 18.731 326.754 18.731 327.392 18.0932L334.726 10.759C335.364 10.1213 335.364 9.16464 334.726 8.52689L327.392 1.1927C326.754 0.55495 325.797 0.55495 325.16 1.1927C324.522 1.83046 324.522 2.78709 325.16 3.42485L329.783 8.04857L308.737 8.04857C307.94 8.04857 307.143 8.68633 307.143 9.64296C307.143 10.5996 307.94 11.2373 308.737 11.2373Z" fill="#458FF6"/>
<circle opacity="0.3" cx="154" cy="10" r="5" fill="#5B9BF3"/>
<circle opacity="0.3" cx="182" cy="10" r="5" fill="#5B9BF3"/>
<circle opacity="0.3" cx="210" cy="10" r="5" fill="#5B9BF3"/>
<circle cx="126" cy="10" r="5" fill="#5B9BF3"/>
</svg>
